<svg width="30" height="30" viewBox="0 0 30 30" fill="none" xmlns="http://www.w3.org/2000/svg">
<path d="M18.75 27.5V22.5C18.9239 20.9341 18.4749 19.3627 17.5 18.125C21.25 18.125 25 15.625 25 11.25C25.1 9.6875 24.6625 8.15 23.75 6.875C24.1 5.4375 24.1 3.9375 23.75 2.5C23.75 2.5 22.5 2.5 20 4.375C16.7 3.75 13.3 3.75 10 4.375C7.5 2.5 6.25 2.5 6.25 2.5C5.875 3.9375 5.875 5.4375 6.25 6.875C5.33984 8.14485 4.89809 9.69098 5 11.25C5 15.625 8.75 18.125 12.5 18.125C12.0125 18.7375 11.65 19.4375 11.4375 20.1875C11.225 20.9375 11.1625 21.725 11.25 22.5V27.5" stroke="black" stroke-width="2" stroke-linecap="round" stroke-linejoin="round"/>
<path d="M11.25 22.5C5.6125 25 5 20 2.5 20" stroke="black" stroke-width="2" stroke-linecap="round" stroke-linejoin="round"/>
</svg>
